<svg width="1200" height="640" viewBox="0 0 1200 640" fill="none" xmlns="http://www.w3.org/2000/svg">
  <rect width="1200" height="640" fill="#0F172A"/>
  <rect x="0" y="0" width="1200" height="48" fill="#1E293B"/>
  <rect x="0" y="48" width="240" height="592" fill="#1E293B"/>
  <rect x="250" y="60" width="900" height="560" fill="#111827"/>
  
  <!-- File tree indicators -->
  <rect x="20" y="80" width="10" height="10" rx="2" fill="#2563EB"/>
  <rect x="40" y="80" width="160" height="8" rx="2" fill="#4B5563"/>
  
  <rect x="20" y="110" width="10" height="10" rx="2" fill="#10B981"/>
  <rect x="40" y="110" width="140" height="8" rx="2" fill="#4B5563"/>
  
  <rect x="20" y="140" width="10" height="10" rx="2" fill="#F59E0B"/>
  <rect x="40" y="140" width="160" height="8" rx="2" fill="#4B5563"/>
  
  <rect x="20" y="170" width="10" height="10" rx="2" fill="#F43F5E"/>
  <rect x="40" y="170" width="120" height="8" rx="2" fill="#4B5563"/>
  
  <!-- Code line numbers -->
  <text x="270" y="100" font-family="monospace" font-size="14" fill="#64748B">1</text>
  <text x="270" y="130" font-family="monospace" font-size="14" fill="#64748B">2</text>
  <text x="270" y="160" font-family="monospace" font-size="14" fill="#64748B">3</text>
  <text x="270" y="190" font-family="monospace" font-size="14" fill="#64748B">4</text>
  <text x="270" y="220" font-family="monospace" font-size="14" fill="#64748B">5</text>
  
  <!-- Code content -->
  <text x="300" y="100" font-family="monospace" font-size="14" fill="#C084FC">function</text>
  <text x="370" y="100" font-family="monospace" font-size="14" fill="#38BDF8">quickSort</text>
  <text x="440" y="100" font-family="monospace" font-size="14" fill="#E2E8F0">(arr) {</text>
  
  <text x="320" y="130" font-family="monospace" font-size="14" fill="#E2E8F0">if (arr.length <= 1) {</text>
  <text x="340" y="160" font-family="monospace" font-size="14" fill="#E2E8F0">return arr;</text>
  <text x="320" y="190" font-family="monospace" font-size="14" fill="#E2E8F0">}</text>
  
  <text x="320" y="220" font-family="monospace" font-size="14" fill="#E2E8F0">const pivot = arr[0];</text>
  <text x="320" y="250" font-family="monospace" font-size="14" fill="#E2E8F0">const left = [];</text>
  <text x="320" y="280" font-family="monospace" font-size="14" fill="#E2E8F0">const right = [];</text>
  
  <!-- "CodeCraft" watermark -->
  <text x="600" y="450" font-family="sans-serif" font-size="36" fill="#1E293B" opacity="0.2">CodeCraft</text>
</svg> 